<svg xmlns="http://www.w3.org/2000/svg" viewBox="0 0 512 512">
  <!-- Cream background with rounded corners (maskable safe zone) -->
  <rect width="512" height="512" fill="#f5f0e8" rx="80"/>

  <!-- === OPEN BOOK (bottom) === -->
  <path d="M 100 390 L 100 330 Q 100 320 112 318 L 248 295 L 248 420 L 112 420 Q 100 420 100 408 Z" fill="#1a1a1a"/>
  <path d="M 412 390 L 412 330 Q 412 320 400 318 L 264 295 L 264 420 L 400 420 Q 412 420 412 408 Z" fill="#1a1a1a"/>
  <rect x="246" y="295" width="20" height="125" fill="#111111"/>
  <line x1="115" y1="335" x2="246" y2="310" stroke="#f5f0e8" stroke-width="3" opacity="0.35"/>
  <line x1="115" y1="352" x2="246" y2="327" stroke="#f5f0e8" stroke-width="3" opacity="0.35"/>
  <line x1="115" y1="369" x2="246" y2="344" stroke="#f5f0e8" stroke-width="3" opacity="0.35"/>
  <line x1="115" y1="386" x2="246" y2="361" stroke="#f5f0e8" stroke-width="3" opacity="0.35"/>
  <line x1="397" y1="335" x2="266" y2="310" stroke="#f5f0e8" stroke-width="3" opacity="0.35"/>
  <line x1="397" y1="352" x2="266" y2="327" stroke="#f5f0e8" stroke-width="3" opacity="0.35"/>
  <line x1="397" y1="369" x2="266" y2="344" stroke="#f5f0e8" stroke-width="3" opacity="0.35"/>
  <line x1="397" y1="386" x2="266" y2="361" stroke="#f5f0e8" stroke-width="3" opacity="0.35"/>
  <path d="M 100 408 Q 256 435 412 408" fill="none" stroke="#1a1a1a" stroke-width="8" stroke-linecap="round"/>

  <!-- === GLOBE (centre-left, overlapping top of book) === -->
  <circle cx="220" cy="215" r="118" fill="#1a1a1a"/>
  <circle cx="220" cy="215" r="118" fill="none" stroke="#f5f0e8" stroke-width="3" opacity="0.15"/>
  <ellipse cx="220" cy="175" rx="118" ry="30" fill="none" stroke="#f5f0e8" stroke-width="2" opacity="0.2"/>
  <ellipse cx="220" cy="215" rx="118" ry="38" fill="none" stroke="#f5f0e8" stroke-width="2.5" opacity="0.2"/>
  <ellipse cx="220" cy="258" rx="100" ry="28" fill="none" stroke="#f5f0e8" stroke-width="2" opacity="0.2"/>
  <line x1="220" y1="97" x2="220" y2="333" stroke="#f5f0e8" stroke-width="2.5" opacity="0.2"/>
  <!-- Africa landmass -->
  <path d="M 200 128 C 210 118 238 120 245 135 L 252 158 C 258 175 260 200 255 225 L 258 260 C 260 285 252 308 238 318 C 222 328 205 322 198 305 C 192 288 195 265 200 248 L 196 220 C 190 195 188 165 200 128 Z" fill="#f5f0e8" opacity="0.22"/>
  <!-- Europe -->
  <path d="M 162 148 C 168 132 190 124 198 135 L 195 155 C 188 170 170 172 162 162 C 156 155 158 148 162 148 Z" fill="#f5f0e8" opacity="0.22"/>

  <!-- === FOUNTAIN PEN (diagonal) === -->
  <g transform="rotate(-45, 340, 230)">
    <rect x="320" y="85" width="40" height="22" rx="8" fill="#1a1a1a"/>
    <rect x="320" y="107" width="40" height="140" rx="4" fill="#1a1a1a"/>
    <rect x="320" y="110" width="40" height="7" rx="2" fill="#f5f0e8" opacity="0.3"/>
    <rect x="320" y="122" width="40" height="7" rx="2" fill="#f5f0e8" opacity="0.3"/>
    <path d="M 320 247 L 360 247 L 354 278 L 326 278 Z" fill="#1a1a1a"/>
    <path d="M 326 278 L 354 278 L 340 320 Z" fill="#1a1a1a"/>
    <line x1="340" y1="290" x2="340" y2="318" stroke="#f5f0e8" stroke-width="2" opacity="0.5"/>
  </g>
</svg>
